<svg xmlns="http://www.w3.org/2000/svg" viewBox="0 0 64 64"><defs><style>.cls-1{fill:#ffc6ff;}</style></defs><title>12-Images Sharing</title><g id="_12-Images_Sharing" data-name="12-Images Sharing"><rect class="cls-1" x="20" y="18" width="20" height="2"/><path class="cls-1" d="M63,12H47v2H62V54H58V19a1,1,0,0,0-1-1H45V7.41l2.29,2.29,1.41-1.41-4-4a1,1,0,0,0-1.41,0l-4,4,1.41,1.41L43,7.41V18a2,2,0,0,0,2,2H56V58H2V20H15a2,2,0,0,0,2-2V7.41l2.29,2.29,1.41-1.41-4-4a1,1,0,0,0-1.41,0l-4,4,1.41,1.41L15,7.41V18H5V14h8V12H4a1,1,0,0,0-1,1v5H1a1,1,0,0,0-1,1V59a1,1,0,0,0,1,1H57a1,1,0,0,0,1-1V56h5a1,1,0,0,0,1-1V13A1,1,0,0,0,63,12Z"/><path class="cls-1" d="M5,24V54a1,1,0,0,0,1,1H52a1,1,0,0,0,1-1V24a1,1,0,0,0-1-1H6A1,1,0,0,0,5,24ZM51,53H39.41l-8-8L39,37.42l12,12ZM7,25H51V46.59L39.71,35.29a1,1,0,0,0-1.41,0L30,43.59l-8.26-8.26a1,1,0,0,0-1.41,0L7,48.65ZM7,51.48l14-14L36.59,53H7Z"/><path class="cls-1" d="M30,37a5,5,0,1,0-5-5A5,5,0,0,0,30,37Zm0-8a3,3,0,1,1-3,3A3,3,0,0,1,30,29Z"/><rect class="cls-1" x="29" y="12" width="2" height="2"/><rect class="cls-1" x="33" y="12" width="7" height="2"/><rect class="cls-1" x="21" y="12" width="6" height="2"/></g></svg>